<?xml version="1.0" encoding="utf-8"?>
<!-- Generator: Adobe Illustrator 23.0.2, SVG Export Plug-In . SVG Version: 6.00 Build 0)  -->
<svg version="1.1" id="ba65d029-7b6e-4d16-9739-50ea7099b679"
	 xmlns="http://www.w3.org/2000/svg" xmlns:xlink="http://www.w3.org/1999/xlink" x="0px" y="0px" viewBox="0 0 888 618.1"
	 style="enable-background:new 0 0 888 618.1;" xml:space="preserve">
<style type="text/css">
	.st0{fill:#2F2E41;}
	.st1{fill:#FFB9B9;}
	.st2{fill:#E6E6E6;}
	.st3{fill:#2FB86E;}
	.st4{fill:#3F3D56;}
	.st5{fill:#FFFFFF;}
	.st6{fill:#9F616A;}
	.st7{opacity:0.2;enable-background:new    ;}
</style>
<path class="st0" d="M639.4,169.2l-39.1,0.3c-1.9-9.1-8-32.7-2.4-39.3c0.5-5,4.9-8.9,10.1-8.5l0,0c6-9.5,16.2-8.1,23-2.2
	c6.9,2.4,9.4,6.6,8.5,12.3c5,4.5,6,9.9,3.7,16L639.4,169.2z"/>
<path class="st1" d="M635.6,193.2l-28.3-3.9l-5.7-8.2c7.8-5.1,10.5-12.4,6.9-22.1l19.5-0.4c-0.9,8.8,2,15.4,10,19.5L635.6,193.2z"/>
<path class="st2" d="M600.7,447.7l-1.1,14.8c-0.2,2.6,1.8,4.8,4.4,5c0.2,0,0.4,0,0.7,0l7.6-0.4c1.3-0.1,2.3-1.2,2.3-2.5
	c0-0.1,0-0.3-0.1-0.4l-4.2-16.9L600.7,447.7z"/>
<path class="st2" d="M625.2,447.3l-4.2,16.9c-0.3,1.3,0.4,2.6,1.8,3c0.1,0,0.3,0.1,0.4,0.1l7.6,0.4c2.6,0.1,4.8-1.9,4.9-4.4
	c0-0.2,0-0.4,0-0.7l-1.1-14.8L625.2,447.3z"/>
<polygon class="st3" points="635.2,449.8 624.9,448.8 614.7,340 610.9,448.5 600.8,448.1 583.9,297.9 648.6,297.9 "/>
<circle class="st1" cx="619.5" cy="146.4" r="19.5"/>
<path class="st3" d="M658.2,301.3l-79,0.9c11.7-44.7,18.7-86.1,6.5-114.6l19.5-9.5c9.4,9.9,19.9,8.8,31.2-0.9L655,182
	C651.9,219.4,653.4,259.4,658.2,301.3z"/>
<path class="st1" d="M557.4,255.3l49.1,19.6l11,3.2c2,0.5,4.2-0.5,4.7-2.5v-0.1l0,0c0.4-1.8-0.4-3.6-2.2-4.4l-11.4-3.5l-34.2-20
	l7.1-18.8l-15-8L557.4,255.3z"/>
<path class="st3" d="M557.9,219.7c9.3,3.6,16.8,9.9,22.6,18.2l18.2-26.5l-12.9-23.8L557.9,219.7z"/>
<path class="st0" d="M641.5,143.2c-7.9-2.1-15.8-2.3-23.3,0.2c-4.8,2.3-10.6,2.1-17.1,0.2v-19.5L636,125L641.5,143.2z"/>
<path class="st4" d="M606.3,232.6c-3.2,0-5.8,2.6-5.8,5.8l2.3,47.9c0,3.2,2.6,5.8,5.8,5.8h26.1c3.2,0,5.8-2.6,5.8-5.8l2.3-47.9
	c0-3.2-2.6-5.8-5.8-5.8H606.3z"/>
<path class="st1" d="M680.4,251.7l-42.7,17l-3.2,1.3c-0.1,0-0.2,0.1-0.3,0.1l-10.8,3.2c-1.4,0.4-3.3-1.4-4.4-2.7s-1.2-3.2-0.1-4.5
	c0.1-0.2,0.3-0.3,0.4-0.4c0.4-0.3,0.9-0.5,1.4-0.7l10.8-2.1c0.4-0.1,0.8-0.2,1.1-0.4l5-3l26.2-15.2c1.5-0.9,2.2-2.7,1.5-4.4l-5-13.1
	c-0.7-1.6,0.1-3.5,1.6-4.4l8.2-4.4c1.8-0.9,3.8-0.3,4.8,1.4c0.1,0.2,0.2,0.5,0.3,0.8l7.2,27.4C682.9,249.3,682.1,251.1,680.4,251.7z
	"/>
<path class="st3" d="M682.9,215c-9.3,3.6-16.8,9.9-22.6,18.2l-18.2-26.5l13-24.7L682.9,215z"/>
<path class="st5" d="M632.6,163.8c-8.5,3.5-17.5,3.4-26.8,0c2.7-4.6-1.3-8.2-3.4-12.9l34.8-1C634.4,153.9,630.5,158.6,632.6,163.8z"
	/>
<polygon class="st5" points="636.7,150.6 636.3,150.2 636.8,149.7 640.3,145.6 640.8,146.1 637.3,150 "/>
<rect x="601.1" y="147.6" transform="matrix(0.6402 -0.7682 0.7682 0.6402 101.2784 515.9222)" class="st5" width="0.5" height="4.5"/>
<rect x="629.4" y="158.5" transform="matrix(0.537 -0.8436 0.8436 0.537 160.0496 609.1537)" class="st5" width="11.2" height="0.5"/>
<rect x="603.1" y="153.3" transform="matrix(0.8437 -0.5369 0.5369 0.8437 9.0443 348.7439)" class="st5" width="0.5" height="11.2"/>
<path class="st5" d="M638.8,258.7V269l-3.6,1.4c-0.1,0-0.2,0.1-0.3,0.1l-12,3.5c-1.5,0.4-3.7-1.6-4.9-3.1c-1.3-1.4-1.3-3.6-0.1-5
	c0.2-0.2,0.3-0.3,0.5-0.5c0.4-0.3,1-0.7,1.6-0.7l12-2.4c0.4-0.1,0.9-0.2,1.2-0.4L638.8,258.7z"/>
<path class="st4" d="M644.1,221.8H642c0-29.1-6-49.5-11.8-49.5l-0.5-2.1c5.3,0,8.7,8.4,10.5,15.5
	C642.6,195.4,644.1,208.2,644.1,221.8z"/>
<path class="st4" d="M596.5,214.6h-2.1c0-26.7,6-43.4,15-43.4l-0.5,2.1C602.8,173.3,596.5,186.1,596.5,214.6z"/>
<circle class="st4" cx="643" cy="222.4" r="5.1"/>
<path class="st4" d="M588.3,227h-2.1c0-7.4,4.2-13.4,9.3-13.4v2.1C591.5,215.6,588.3,220.7,588.3,227z"/>
<path class="st4" d="M604.9,227h-2.1c0-6.2-3.3-11.4-7.2-11.4v-2C600.7,213.6,604.9,219.5,604.9,227z"/>
<circle class="st4" cx="603.8" cy="227.5" r="2.1"/>
<circle class="st4" cx="587.2" cy="227.5" r="2.1"/>
<path class="st0" d="M338.7,158.2l-36.2,6.1c-1.9,0.3-3.6-0.8-4.2-2.6c-2.6-9.4-8.1-21.8-2.7-27.9c0.5-5.4,5.3-9.4,10.7-9.1l0,0
	c6.5-10.2,17.3-8.7,24.5-2.3c7.3,2.5,10.1,7,9.1,13.1c3.2,2.7,4.8,5.9,5.1,9.3c0.3,3.8-1,7.7-3.7,10.5L338.7,158.2z"/>
<path class="st6" d="M333.1,186.7l-28.1-1.6c2.7-6.4,3.8-12.4,2.7-18.2h20.9C328.6,171.2,330.8,178.9,333.1,186.7z"/>
<path class="st2" d="M299.2,446.2L298,462c-0.2,2.7,1.9,5.1,4.6,5.4c0.2,0,0.4,0,0.7,0l8.1-0.4c1.4-0.1,2.5-1.3,2.4-2.7
	c0-0.1,0-0.3-0.1-0.4l-4.5-18L299.2,446.2z"/>
<path class="st2" d="M325.4,445.8l-4.5,18c-0.3,1.4,0.4,2.7,1.9,3.1c0.1,0,0.3,0.1,0.4,0.1l8.1,0.4c2.7,0.2,5.1-2,5.3-4.7
	c0-0.2,0-0.4,0-0.7l-1.2-15.8L325.4,445.8z"/>
<polygon class="st3" points="336,448.4 325.1,447.3 314.2,331.1 310.1,447 299.3,446.5 281.3,286.2 350.4,286.2 "/>
<circle class="st6" cx="318.7" cy="152.7" r="20.8"/>
<path class="st0" d="M342.3,142.8c-8.4-1.4-16.8-1.6-24.9,0.2c-5.1,1.6-11.4,1.5-18.2,0.1v-14l37.1,0.7L342.3,142.8z"/>
<path class="st5" d="M332.6,169.4c-9.1,3.8-18.7,3.6-28.7,0c2.8-4.9-1.4-8.9-3.6-13.8l37.2-1.1C334.6,158.9,330.4,164,332.6,169.4z"
	/>
<rect x="299.1" y="152.1" transform="matrix(0.6402 -0.7682 0.7682 0.6402 -10.9427 285.5177)" class="st5" width="0.5" height="4.7"/>
<rect x="329.2" y="163.8" transform="matrix(0.537 -0.8436 0.8436 0.537 16.796 358.7014)" class="st5" width="11.9" height="0.5"/>
<rect x="301.1" y="158.1" transform="matrix(0.8437 -0.5369 0.5369 0.8437 -40.9619 187.4455)" class="st5" width="0.5" height="11.9"/>
<path class="st3" d="M279.1,247.8l-16-10l13.6-39.9c1.5-4.2,4.4-7.6,8.2-9.7l4.6-2.6l0.4,40.3L279.1,247.8z"/>
<path class="st3" d="M348.1,267.2l-2.4-20.3c-0.1-10.7,1.6-21,6-30.6l2.2-29.8l-24.2-10c-0.1,0.5-0.1,1-0.2,1.5l-11.4,5.7l-11.1-2.5
	l0.1-3.5l-22,10c7.3,33.8,3.3,69.1-9.2,110.6l29,7.9l0.2-13.9l25.8-1.9c0.2,4.5,0.4,9,0.7,13.4c14.6,5.4,15.1,5.3,28.4-2.4
	C354.8,290.3,350.5,278.7,348.1,267.2z"/>
<polygon class="st3" points="385.3,242.9 370.5,237.9 346.6,210.2 354,186.7 386.9,233 "/>
<path class="st2" d="M338.8,264.3c0.5,2.2,2.7,3.6,4.9,3.1l12.6-2.8l-1.9-8.1l-12.6,2.8C339.6,259.8,338.2,262,338.8,264.3
	L338.8,264.3z"/>
<path class="st3" d="M350.2,255l7.1,13.2c12-3.4,22.4-13.9,32.5-26.4l-2.7-8.8l-17.1,4.4L350.2,255z"/>
<polygon class="st2" points="256.7,213.5 270.5,215.9 301.9,260.6 285.2,256.8 "/>
<path class="st4" d="M254.3,213c-0.7,0-1.2,0.5-1.2,1.2c0,0.2,0.1,0.4,0.2,0.7l29.3,44.6c0.1,0.2,0.4,0.4,0.7,0.5l13.7,3.2
	c0.7,0.1,1.2-0.2,1.4-0.9c0.1-0.3,0-0.7-0.2-1l-32.2-45.9c-0.2-0.2-0.4-0.4-0.8-0.4l-10.8-2C254.4,213,254.3,213,254.3,213z"/>
<path class="st2" d="M272.6,244.8l0.8,8.2l12.9-1.3c2.3-0.2,3.9-2.3,3.7-4.5c-0.2-2.3-2.3-3.9-4.5-3.7L272.6,244.8z"/>
<path class="st3" d="M261.5,243.8c0,5.8,4.8,10.5,10.6,10.5h2.1l1.5-12.8l-12.8-4.6L261.5,243.8z"/>
<polygon class="st5" points="336.5,155.9 336,155.5 336.7,154.9 340.3,150.6 340.7,151 337.1,155.2 "/>
<path class="st2" d="M409.3,466.1h119.9V320.7c0-7.7-7.6-14-16.9-14h-86.1c-9.3,0-16.9,6.2-16.9,14v145.4H409.3z"/>
<path class="st5" d="M418.5,460.1h101.6V336.8c0-6.6-6.5-11.8-14.3-11.8h-72.9c-7.9,0-14.3,5.3-14.3,11.8V460.1z"/>
<path class="st4" d="M408.4,295.4c-3,0-5.4,2-5.4,4.5v12.8c0,2.4,2.4,4.5,5.4,4.5h121.7c3,0,5.4-2,5.4-4.5v-12.8
	c0-2.4-2.4-4.5-5.4-4.5H408.4z"/>
<path class="st4" d="M433.4,444.3c-2.8,0-5.3,2.3-5.3,5.3l0,0c0,2.8,2.3,5.3,5.3,5.3h9.9v-10.5L433.4,444.3L433.4,444.3z"/>
<path class="st3" d="M452.2,444.3h-9.5v10.5h9.5c2.8,0,5.3-2.3,5.3-5.3l0,0C457.5,446.6,455.2,444.3,452.2,444.3z"/>
<path class="st7" d="M455.6,445.5c0.9,1,1.3,2.2,1.3,3.4l0,0c0,2.8-2.3,5.3-5.3,5.3h-9v0.5h9.5c2.8,0,5.3-2.3,5.3-5.3l0,0
	C457.5,448.1,456.8,446.5,455.6,445.5z"/>
<path class="st4" d="M477.7,365.2c-2-2.1-5.3-2.2-7.4-0.2l0,0c-2.1,2-2.2,5.3-0.2,7.4l6.8,7.1l7.7-7.2L477.7,365.2z"/>
<path class="st3" d="M490.6,379l-6.6-7l-7.7,7.2l6.6,7c2,2.1,5.3,2.2,7.4,0.2l0,0C492.5,384.3,492.6,381,490.6,379z"/>
<path class="st7" d="M492.1,382.2c-0.1,1.2-0.7,2.4-1.6,3.3l0,0c-2.1,2-5.5,1.9-7.4-0.2l-6.2-6.6l-0.4,0.3l6.6,7
	c2,2.1,5.3,2.2,7.4,0.2l0,0C491.5,385.3,492.2,383.8,492.1,382.2z"/>
<path class="st4" d="M449.8,381.7c-2-2.1-5.3-2.2-7.4-0.2l0,0c-2.1,2-2.2,5.3-0.2,7.4l6.8,7.1l7.7-7.2L449.8,381.7z"/>
<path class="st3" d="M462.7,395.5l-6.6-7l-7.7,7.2l6.6,7c2,2.1,5.3,2.2,7.4,0.2l0,0C464.6,400.9,464.7,397.6,462.7,395.5z"/>
<path class="st7" d="M464.1,398.9c-0.1,1.2-0.7,2.4-1.6,3.3l0,0c-2.1,2-5.5,1.9-7.4-0.2l-6.2-6.6l-0.4,0.3l6.6,7
	c2,2.1,5.3,2.2,7.4,0.2l0,0C463.6,401.9,464.1,400.3,464.1,398.9z"/>
<path class="st4" d="M477.7,397.1c-2-2.1-5.3-2.2-7.4-0.2l0,0c-2.1,2-2.2,5.3-0.2,7.4l6.8,7.1l7.7-7.2L477.7,397.1z"/>
<path class="st3" d="M490.6,410.8l-6.6-7l-7.7,7.2l6.6,7c2,2.1,5.3,2.2,7.4,0.2l0,0C492.5,416.3,492.6,413,490.6,410.8z"/>
<path class="st7" d="M492.1,414.2c-0.1,1.2-0.7,2.4-1.6,3.3l0,0c-2.1,2-5.5,1.9-7.4-0.2l-6.2-6.6l-0.4,0.3l6.6,7
	c2,2.1,5.3,2.2,7.4,0.2l0,0C491.5,417.3,492.2,415.8,492.1,414.2z"/>
<path class="st4" d="M494.8,430c2.1-2,2.1-5.4,0.1-7.4l0,0c-2-2.1-5.4-2.1-7.4-0.1l-7.1,6.8l7.3,7.6L494.8,430z"/>
<path class="st3" d="M481.2,443l6.9-6.7l-7.3-7.6l-6.9,6.7c-2.1,2-2.1,5.4-0.1,7.4l0,0C475.9,445,479.1,445.1,481.2,443z"/>
<path class="st7" d="M477.8,444.6c-1.2-0.1-2.4-0.7-3.3-1.5l0,0c-2-2.1-2-5.4,0.1-7.4l6.5-6.2l-0.3-0.4l-6.9,6.7
	c-2.1,2-2.1,5.4-0.1,7.4l0,0C474.9,444,476.3,444.7,477.8,444.6z"/>
<path class="st4" d="M457.1,413.5c2.1-2,2.1-5.4,0.1-7.4l0,0c-2-2.1-5.4-2.1-7.4-0.1l-7.1,6.8l7.3,7.6L457.1,413.5z"/>
<path class="st3" d="M443.6,426.5l6.9-6.7l-7.3-7.6l-6.9,6.7c-2.1,2-2.1,5.4-0.1,7.4l0,0C438.2,428.5,441.5,428.6,443.6,426.5z"/>
<path class="st7" d="M440.2,428c-1.2-0.1-2.4-0.7-3.3-1.5l0,0c-2-2.1-2-5.4,0.1-7.4l6.5-6.2l-0.3-0.4l-6.9,6.7
	c-2.1,2-2.1,5.4-0.1,7.4l0,0C437.2,427.5,438.6,428,440.2,428z"/>
<path class="st4" d="M510.8,393.4c2.1-2,2.1-5.4,0.1-7.4l0,0c-2-2.1-5.4-2.1-7.4-0.1l-7.1,6.8l7.3,7.6L510.8,393.4z"/>
<path class="st3" d="M497.2,406.6l6.9-6.7l-7.3-7.6l-6.9,6.7c-2.1,2-2.1,5.4-0.1,7.4l0,0C491.9,408.5,495.1,408.5,497.2,406.6z"/>
<path class="st7" d="M493.8,408c-1.2-0.1-2.4-0.7-3.3-1.5l0,0c-2-2.1-2-5.4,0.1-7.4l6.5-6.2l-0.3-0.4l-6.9,6.7
	c-2.1,2-2.1,5.4-0.1,7.4l0,0C490.9,407.5,492.3,408.1,493.8,408z"/>
<path class="st4" d="M498.9,434.8c-2-2.1-5.3-2.2-7.4-0.2l0,0c-2.1,2-2.2,5.3-0.2,7.4l6.8,7.1l7.7-7.2L498.9,434.8z"/>
<path class="st3" d="M511.8,448.6l-6.6-7l-7.7,7.2l6.6,7c2,2.1,5.3,2.2,7.4,0.2l0,0C513.6,454,513.8,450.7,511.8,448.6z"/>
<path class="st7" d="M513.2,451.9c-0.1,1.2-0.7,2.4-1.6,3.3l0,0c-2.1,2-5.5,1.9-7.4-0.2l-6.2-6.6l-0.4,0.3l6.6,7
	c2,2.1,5.3,2.2,7.4,0.2l0,0C512.7,455,513.3,453.4,513.2,451.9z"/>
<path class="st4" d="M461.7,434.3c-2-2.1-5.3-2.2-7.4-0.2l0,0c-2.1,2-2.2,5.3-0.2,7.4l6.8,7.1l7.7-7.2L461.7,434.3z"/>
<path class="st3" d="M474.7,448l-6.6-7l-7.7,7.2l6.6,7c2,2.1,5.3,2.2,7.4,0.2l0,0C476.5,453.4,476.6,450.1,474.7,448z"/>
<path class="st7" d="M476.1,451.3c-0.1,1.2-0.7,2.4-1.6,3.3l0,0c-2.1,2-5.5,1.9-7.4-0.2l-6.2-6.6l-0.4,0.3l6.6,7
	c2,2.1,5.3,2.2,7.4,0.2l0,0C475.5,454.4,476.2,452.9,476.1,451.3z"/>
<path class="st3" d="M472.1,415.4c0,3.6-2.5,6.7-6,7.4c-1,0.2-2.1,0.2-3.1,0c-4.1-0.9-6.8-4.8-5.9-9c0.7-3,3-5.3,5.9-5.9
	c1-0.2,2.1-0.2,3.1,0C469.6,408.7,472.1,411.8,472.1,415.4z"/>
<path class="st7" d="M466.1,408v14.9c-1,0.2-2.1,0.2-3.1,0V408C464.1,407.9,465.1,407.9,466.1,408z"/>
<path class="st3" d="M475.6,385.2c0,3.6-2.5,6.7-6,7.4c-1,0.2-2.1,0.2-3.1,0c-4.1-0.9-6.8-4.8-5.9-9c0.7-3,3-5.3,5.9-5.9
	c1-0.2,2.1-0.2,3.1,0C473.1,378.5,475.6,381.6,475.6,385.2z"/>
<path class="st7" d="M469.5,377.8v14.9c-1,0.2-2.1,0.2-3.1,0v-14.9C467.5,377.5,468.5,377.5,469.5,377.8z"/>
<path class="st3" d="M475.6,428.6c0,3.6-2.5,6.7-6,7.4c-1,0.2-2.1,0.2-3.1,0c-4.1-0.9-6.8-4.8-5.9-9c0.7-3,3-5.3,5.9-5.9
	c1-0.2,2.1-0.2,3.1,0C473.1,421.9,475.6,425,475.6,428.6z"/>
<path class="st7" d="M469.5,421.1V436c-1,0.2-2.1,0.2-3.1,0v-14.9C467.5,420.9,468.5,420.9,469.5,421.1z"/>
<path class="st3" d="M494.5,449.7c0,3.6-2.5,6.7-6,7.4c-1,0.2-2.1,0.2-3.1,0c-4.1-0.9-6.8-4.8-5.9-9c0.7-3,3-5.3,5.9-5.9
	c1-0.2,2.1-0.2,3.1,0C492,443,494.5,446.1,494.5,449.7z"/>
<path class="st7" d="M488.3,442.3v14.9c-1,0.2-2.1,0.2-3.1,0v-14.9C486.4,442,487.4,442,488.3,442.3z"/>
<path class="st3" d="M511.1,410.8c2.6,2.5,3.1,6.5,1.1,9.5c-0.5,0.9-1.3,1.6-2.1,2.2c-3.4,2.4-8.2,1.5-10.5-2
	c-1.8-2.5-1.8-5.8-0.1-8.3c0.5-0.9,1.3-1.6,2.1-2.2C504.6,408,508.5,408.3,511.1,410.8z"/>
<path class="st7" d="M501.6,410.1l10.7,10.3c-0.5,0.9-1.3,1.6-2.1,2.2l-10.7-10.3C500,411.4,500.7,410.6,501.6,410.1z"/>
<path class="st3" d="M513.4,427.4c2.6,2.5,3.1,6.5,1.1,9.5c-0.5,0.9-1.3,1.6-2.1,2.2c-3.4,2.4-8.2,1.5-10.5-2
	c-1.8-2.5-1.8-5.8-0.1-8.3c0.5-0.9,1.3-1.6,2.1-2.2C506.7,424.5,510.8,424.8,513.4,427.4z"/>
<path class="st7" d="M503.8,426.6l10.7,10.3c-0.5,0.9-1.3,1.6-2.1,2.2l-10.7-10.3C502.3,427.9,503,427.1,503.8,426.6z"/>
<path class="st3" d="M445.4,431.4c2.6,2.5,3.1,6.5,1.1,9.5c-0.5,0.9-1.3,1.6-2.1,2.2c-3.4,2.4-8.2,1.5-10.5-2
	c-1.8-2.5-1.8-5.8-0.1-8.3c0.5-0.9,1.3-1.6,2.1-2.2C438.9,428.6,442.9,428.9,445.4,431.4z"/>
<path class="st7" d="M435.9,430.6l10.7,10.3c-0.5,0.9-1.3,1.6-2.1,2.2l-10.7-10.3C434.4,432,435,431.2,435.9,430.6z"/>
<rect x="418.2" y="295.4" class="st7" width="2.8" height="21.1"/>
<rect x="434.7" y="295.4" class="st7" width="2.8" height="21.1"/>
<rect x="451.2" y="295.4" class="st7" width="2.8" height="21.1"/>
<rect x="467.8" y="295.4" class="st7" width="2.8" height="21.1"/>
<rect x="484.4" y="295.4" class="st7" width="2.8" height="21.1"/>
<rect x="500.9" y="295.4" class="st7" width="2.8" height="21.1"/>
<rect x="517.5" y="295.4" class="st7" width="2.8" height="21.1"/>
</svg>
