<?xml version="1.0" encoding="utf-8"?>
<!-- Generator: Adobe Illustrator 23.0.2, SVG Export Plug-In . SVG Version: 6.00 Build 0)  -->
<svg version="1.1" id="Camada_1" xmlns="http://www.w3.org/2000/svg" xmlns:xlink="http://www.w3.org/1999/xlink" x="0px" y="0px"
	 viewBox="0 0 182 44" style="enable-background:new 0 0 182 44;" xml:space="preserve">
<style type="text/css">
	.st0{fill:#D6423C;}
	.st1{fill:#2FB86E;}
</style>
<path class="st0" d="M28.8,24.4c0-0.9,0.1-1.8,0.4-2.5c0.3-0.7,0.6-1.3,1.1-1.8c0.5-0.5,1-0.8,1.6-1.1c0.6-0.2,1.2-0.4,1.9-0.4
	c1.5,0,2.6,0.5,3.5,1.3s1.3,2.2,1.3,4c0,0.2,0,0.4,0,0.6c0,0.2,0,0.4-0.1,0.5h-6.7c0.1,0.6,0.4,1.1,0.9,1.5c0.5,0.4,1.2,0.5,2,0.5
	c0.5,0,1.1-0.1,1.6-0.2c0.5-0.1,0.9-0.2,1.3-0.4l0.4,2.4c-0.2,0.1-0.4,0.2-0.6,0.2c-0.3,0.1-0.6,0.2-0.9,0.2
	c-0.4,0.1-0.6,0.1-1.1,0.2c-0.4,0.1-0.8,0.1-1.1,0.1c-0.9,0-1.8-0.1-2.5-0.4s-1.3-0.6-1.7-1.1c-0.5-0.5-0.8-1.1-1-1.7
	C29,25.8,28.8,25.1,28.8,24.4z M35.8,23.2c0-0.2-0.1-0.5-0.1-0.8c-0.1-0.2-0.2-0.5-0.4-0.6c-0.2-0.2-0.4-0.4-0.6-0.5
	c-0.2-0.1-0.5-0.2-0.9-0.2s-0.6,0.1-0.9,0.2c-0.2,0.1-0.4,0.2-0.6,0.5c-0.2,0.2-0.3,0.4-0.4,0.6c-0.1,0.2-0.2,0.5-0.2,0.8H35.8z"/>
<path class="st0" d="M45.1,29.7c-0.9,0-1.6-0.1-2.1-0.3S42,29,41.7,28.7c-0.3-0.3-0.5-0.7-0.6-1.1c-0.1-0.5-0.2-0.9-0.2-1.5V14.6
	l2.9-0.5v11.3c0,0.3,0,0.5,0.1,0.7c0.1,0.2,0.1,0.4,0.2,0.5c0.1,0.1,0.3,0.3,0.5,0.4c0.2,0.1,0.5,0.2,0.9,0.2L45.1,29.7z"/>
<path class="st1" d="M52.8,24c0-0.9-0.1-1.6-0.4-2c-0.2-0.4-0.6-0.6-1.3-0.6c-0.2,0-0.4,0-0.6,0.1c-0.2,0.1-0.4,0.1-0.6,0.1v8.1
	h-2.9V19.4c0.2-0.1,0.5-0.1,0.9-0.2c0.4-0.1,0.7-0.1,1.1-0.2c0.4-0.1,0.8-0.1,1.2-0.1c0.4-0.1,0.8-0.1,1.2-0.1
	c0.8,0,1.3,0.1,1.8,0.3c0.5,0.2,0.9,0.4,1.2,0.7c0.4-0.3,0.9-0.5,1.5-0.7c0.5-0.2,1.1-0.2,1.5-0.2c0.8,0,1.5,0.1,2,0.4
	c0.5,0.2,0.9,0.6,1.3,1c0.3,0.4,0.5,0.9,0.6,1.5c0.1,0.6,0.2,1.2,0.2,1.9v5.9h-2.9V24c0-0.9-0.1-1.6-0.4-2c-0.2-0.4-0.6-0.6-1.3-0.6
	c-0.2,0-0.4,0.1-0.6,0.1c-0.3,0.1-0.5,0.2-0.7,0.3c0.1,0.3,0.2,0.6,0.2,0.9c0,0.4,0.1,0.7,0.1,1.1v5.7h-2.9L52.8,24L52.8,24z"/>
<path class="st1" d="M68,18.8c0.9,0,1.6,0.1,2.2,0.3c0.6,0.2,1.1,0.5,1.4,0.9c0.4,0.4,0.6,0.8,0.8,1.3c0.1,0.5,0.2,1.1,0.2,1.8v6.1
	c-0.4,0.1-1,0.2-1.8,0.4c-0.8,0.1-1.6,0.2-2.7,0.2c-0.7,0-1.3-0.1-1.8-0.2c-0.5-0.1-1-0.3-1.4-0.6c-0.4-0.3-0.7-0.6-0.9-1.1
	c-0.2-0.4-0.3-1-0.3-1.6c0-0.6,0.1-1.1,0.4-1.5c0.2-0.4,0.6-0.8,1-1c0.4-0.2,0.9-0.4,1.4-0.5c0.5-0.1,1.1-0.2,1.6-0.2
	c0.4,0,0.7,0,1,0.1c0.3,0.1,0.5,0.1,0.7,0.1V23c0-0.5-0.2-0.9-0.5-1.2c-0.3-0.3-0.8-0.5-1.6-0.5c-0.5,0-1,0.1-1.5,0.1
	c-0.5,0.1-0.9,0.2-1.3,0.3l-0.4-2.4c0.2-0.1,0.4-0.1,0.6-0.2c0.2-0.1,0.5-0.1,0.8-0.2c0.3-0.1,0.6-0.1,0.9-0.1
	C67.3,18.8,67.6,18.8,68,18.8z M68.2,27.4c0.3,0,0.6,0,0.8,0c0.3,0,0.5-0.1,0.6-0.1v-2.2c-0.1,0-0.3-0.1-0.5-0.1
	c-0.2,0-0.5-0.1-0.6-0.1c-0.3,0-0.5,0-0.8,0.1c-0.2,0.1-0.5,0.1-0.6,0.2c-0.2,0.1-0.4,0.2-0.4,0.4c-0.1,0.2-0.2,0.4-0.2,0.6
	c0,0.5,0.2,0.8,0.5,0.9C67.2,27.4,67.6,27.4,68.2,27.4z"/>
<path class="st0" d="M84.8,24.3c0,0.8-0.1,1.5-0.3,2.2c-0.2,0.6-0.5,1.2-0.9,1.7s-0.9,0.8-1.4,1.1c-0.6,0.3-1.2,0.4-2,0.4
	c-0.4,0-0.8-0.1-1.2-0.1c-0.4-0.1-0.7-0.2-1.1-0.4v3.9h-2.9V19.4c0.3-0.1,0.6-0.2,0.9-0.2s0.7-0.1,1.1-0.2c0.4-0.1,0.8-0.1,1.2-0.1
	c0.4-0.1,0.8-0.1,1.1-0.1c0.9,0,1.6,0.1,2.3,0.4c0.7,0.2,1.2,0.6,1.7,1.1s0.8,1.1,1.1,1.7C84.7,22.7,84.8,23.5,84.8,24.3z
	 M81.8,24.4c0-0.9-0.2-1.6-0.6-2.2c-0.4-0.5-1-0.8-1.8-0.8c-0.3,0-0.5,0-0.8,0.1c-0.2,0-0.4,0.1-0.5,0.1v5.3
	c0.2,0.1,0.4,0.2,0.7,0.3c0.3,0.1,0.6,0.1,0.9,0.1C81.1,27.2,81.8,26.3,81.8,24.4z"/>
<polygon class="st0" points="17,33.7 11.7,34.6 11.7,10.3 17,9.4 "/>
<polygon class="st0" points="26.1,29.9 23.1,29.9 23.1,14.4 26.1,13.9 "/>
<polygon class="st0" points="27,19.3 27.6,24.7 1.8,24.7 0.9,19.3 "/>
</svg>
